    <svg
      xmlns="http://www.w3.org/2000/svg"
      viewBox="0 0 264.68 87.53"
    >
      <path
        fill="#3e3a39"
        d="M49.3 41.74a20.28 20.28 0 004.45-.49c3.19-.73 3.46-3.08 3.46-3.8s-.27-3.16-3.46-3.77a53 53 0 00-9.31-.68 47.89 47.89 0 00-8.93.68c-3.23.69-3.49 3.08-3.49 3.77s.26 2.92 3.41 3.8a28.27 28.27 0 004.72.53.34.34 0 01.34.34c-.23 5-.08 11.66 0 13.75.22 1.86.53 6.35 4.18 6.35s3.95-4.14 4.14-6.35.26-8.93.15-13.75a.34.34 0 01.34-.38zM76.55 41.51a10.75 10.75 0 00-5.09-1.18 9.87 9.87 0 00-2.78.38A9.77 9.77 0 0063 45.42a12.59 12.59 0 00-1.52 5.7A11.83 11.83 0 0064 59a9.93 9.93 0 001.52 1.52 9.66 9.66 0 006 1.93 13.19 13.19 0 003.88-.64c.87-.34 3.76-1.67 3.91-4.3a3.11 3.11 0 00-.84-2.16 2.86 2.86 0 00-2.24-.84 7.52 7.52 0 00-2.16.46 5.13 5.13 0 01-1.94.46 3.31 3.31 0 01-2.43-.88 1.88 1.88 0 01-.46-.91.4.4 0 01.42-.42 16.8 16.8 0 002.81.08c3.46-.08 5.74-.53 6.88-1.67A4.84 4.84 0 0080.69 48c0-2.73-1.33-4.86-4.14-6.49zm-1.71 6.38A48.31 48.31 0 0169 48c-.19-.08-.27-.15-.19-.49.34-.73 1.52-1.14 3.07-1.14s2.89.49 3.08 1.1c.11.23.11.35-.12.42zM103.34 45.65a9.2 9.2 0 00-8.7-5.09c-6.2 0-10.15 4.37-10.15 11.13s4 11.17 10.15 11.17a10.24 10.24 0 005.2-1.33.47.47 0 01.53.08 3.43 3.43 0 002.78 1.18 2.28 2.28 0 00.91-.12c2.24-.53 3.23-2.62 2.77-5.69-.26-1.6-1.21-7.19-3.49-11.33zm-8.7 9.2c-1.48 0-2.28-1.14-2.28-3.12s.8-3.11 2.28-3.11 2.2 1.14 2.2 3.11-.84 3.12-2.2 3.12zM136.09 43.33a7.26 7.26 0 00-6-3.07c-1.94 0-3.84.26-5 1.25a.46.46 0 01-.61 0 6.47 6.47 0 00-4-1.18 7.34 7.34 0 00-2.62.46c0 .08-.19 0-.3-.08a5.85 5.85 0 00-1.48-.34c-3.08 0-3.77 3-4 5.24a53.07 53.07 0 00-.27 5.89 43.18 43.18 0 00.27 5.36c.34 2.7 1.06 5.78 4.37 5.78a3.54 3.54 0 003.19-3.23c.42-3.27.42-9 .53-9.5a.35.35 0 01.68 0c.19.64.16 6.42.46 9.76.15 1.9 1.75 3 3.65 3a3.1 3.1 0 003.27-3c.41-3.38.34-9 .53-9.65.15-.26.61-.34.68 0 .19.54 0 6.24.53 9.5a3.6 3.6 0 003.5 3c2.13 0 3.27-1.3 3.68-4a29.88 29.88 0 00.54-6.49c-.12-3.15-.04-6.57-1.6-8.7zM188.87 36.8c-.68-3.38-2.85-3.72-3.76-3.72s-3.11.34-3.76 3.72a19.27 19.27 0 00-.34 2.74c-.15 1.74-.27 4.1-.27 6.57 0 .19-.26.26-.41.15a15.62 15.62 0 00-1.14-1.37c-9.81-11.81-11.06-11.81-12.62-11.81-2.16 0-3.42 1.74-3.76 3.72-.15.65-.27 1.6-.42 2.74-.11 2.2-.26 5.09-.26 8.2s.15 6 .26 8.1c.15 1.14.27 2.08.42 2.84.61 3.27 2.81 3.61 3.76 3.61s3.08-.34 3.76-3.61a28.44 28.44 0 00.35-2.84c.11-1.79.26-4 .26-6.5 0-.27.27-.34.38-.15a12.81 12.81 0 011.14 1.36c9.8 11.82 11.1 11.82 12.58 11.82a4.14 4.14 0 003.83-3.69 20.94 20.94 0 00.31-2.84c.23-2.13.34-5.1.34-8.1s-.11-6-.34-8.2a18.54 18.54 0 00-.31-2.74zM211.45 40.83a5.32 5.32 0 00-1.45-.31c-2.54 0-3.68 2.21-5.13 5-.22.53-.6 1.14-.91 1.75 0 .11-.11.15-.3.15a.36.36 0 01-.31-.15 17 17 0 00-1.14-2.43c-.79-1.64-2-4-4.52-4a3.09 3.09 0 00-1.33.23c-.64.23-2.66 1.25-2.31 4.4a20.47 20.47 0 00.38 2.17c.49 1.63 1.14 3.65 1.93 5.81.73 1.94 1.83 4.22 2.36 5.47a.45.45 0 01.08.31 13.22 13.22 0 00-.73 1.86 27.83 27.83 0 00-.8 2.74c-.91 3.42 1.07 4.67 1.94 5a3.22 3.22 0 001.45.34c2.5 0 3.61-2.24 5.13-4.9 1.06-2.09 2.31-4.75 3.61-7.63s2.39-5.74 3.15-8c.34-1.07.64-2 .84-2.74.83-3.44-1.14-4.65-1.94-5.07zM236.49 45.65a9.2 9.2 0 00-8.7-5.09c-6.19 0-10.15 4.37-10.15 11.13s4 11.17 10.15 11.17a10.21 10.21 0 005.2-1.33.49.49 0 01.54.08 3.41 3.41 0 002.77 1.18 2.28 2.28 0 00.91-.12c2.24-.53 3.23-2.62 2.77-5.69-.26-1.6-1.21-7.19-3.49-11.33zm-8.7 9.2c-1.48 0-2.28-1.14-2.28-3.12s.8-3.11 2.28-3.11 2.2 1.14 2.2 3.11-.8 3.12-2.2 3.12zM264.61 51.5c-.27-3.53-1.22-6.34-2.89-8.24a8.77 8.77 0 00-6.91-2.74 8.4 8.4 0 00-3.61.69.85.85 0 01-.46-.08 3.29 3.29 0 00-1.82-.49c-2.36 0-3.69 1.71-4 5.16a76.85 76.85 0 00.08 11.93c.26 2.63 1.21 4.91 4.1 4.91s3.61-2.63 3.61-6c0-4.9.19-7.56 2-7.56s2 2.58 2 7.49c0 3.68.64 6 3.61 6s3.53-2.2 3.79-3.61a26.42 26.42 0 00.5-7.46z"
      />
      <path
        fill="#3e3a39"
        d="M85.64 20.71v-.36c.15-1.7.18-3.16.18-4.07 0-8.33-1.11-12.81-3.71-15A5.69 5.69 0 0077.29.11a44 44 0 00-16.8 6.73 44.79 44.79 0 00-31.76.1A43.94 43.94 0 0011.79.11 5.7 5.7 0 007 1.32C4.4 3.47 3.29 8 3.29 16.28A38.53 38.53 0 005 28.12a44.74 44.74 0 00-5 20.6c0 23.21 18 38.81 44.74 38.81 11.94 0 22.13-3.11 29.76-8.62a3.55 3.55 0 001.92-3.11 3.48 3.48 0 00-1.77-3 3.36 3.36 0 00-3.46 0H71c-7.37 5.48-17.22 7.75-26.28 7.75C27.33 80.53 7 72.2 7 48.72a37.75 37.75 0 014.92-18.65l.9-1.57-.77-1.65c-1.3-2.77-1.76-7.28-1.76-10.57 0-5.85.61-8.23 1-9.13 6 1.24 11.26 3.58 14.63 6.46L27.57 15l2-.89a37.79 37.79 0 0130.07-.1l2 .85 1.65-1.39c3.38-2.83 8.64-5.13 14.53-6.36.36.9 1 3.28 1 9.13a39.21 39.21 0 01-.23 4.28h.1v.15a3.5 3.5 0 007 0z"
      />
    </svg>