    <svg
      xmlns="http://www.w3.org/2000/svg"
      viewBox="0 0 90 87.88"
    >
      <path
        fill="#fff"
        d="M13.59 10.25c6.42 1.36 12.11 3.88 15.74 7a4 4 0 004.21.62 41.09 41.09 0 0132.66-.11 4.17 4.17 0 001.58.32 4 4 0 002.58-.94C74 14.07 79.64 11.59 86 10.25c.39 1.05 1 3.66 1 9.76a30.58 30.58 0 01-1.77 11.15 4 4 0 00.22 3.6A41 41 0 0191 55.41c0 10.53-4 19.34-11.68 25.46C72 86.72 61.61 89.94 50 89.94s-22-3.22-29.32-9.07C13 74.75 9 65.94 9 55.41a41 41 0 015.35-20.26 4 4 0 00.15-3.68c-1.41-3-1.91-7.89-1.91-11.46 0-6.1.61-8.71 1-9.76m73.19-4.19a3.39 3.39 0 00-.54.05c-6.74 1.29-13.75 4-18.46 8a45.11 45.11 0 00-35.85.13c-4.71-4-11.79-6.78-18.6-8.08a3.5 3.5 0 00-.54-.05c-3.69 0-4.2 7.93-4.2 14 0 3.8.5 9.35 2.28 13.16A44.86 44.86 0 005 55.41c0 24.85 20.15 38.53 45 38.53s45-13.68 45-38.53a44.73 44.73 0 00-6.12-22.66C90.51 29 91 23.67 91 20c0-6-.51-14-4.2-14z"
        transform="translate(-5 -6.06)"
      />
    </svg>